<svg width="448" height="964" viewBox="0 0 448 964" fill="none" xmlns="http://www.w3.org/2000/svg">
<rect width="448" height="964" fill="#1E1E1E"/>
<g filter="url(#filter0_d_0_1)">
<rect width="440" height="956" transform="translate(4)" fill="#DEDEDE"/>
<g filter="url(#filter1_d_0_1)">
<rect x="124" y="387" width="199" height="182" rx="8" fill="#0E0D0D"/>
</g>
<path d="M188.961 497.648C191.649 497.648 193.719 497.072 195.169 495.92C196.62 494.725 197.345 492.997 197.345 490.736C197.345 488.859 196.833 487.28 195.809 486C194.828 484.72 193.207 483.739 190.945 483.056L185.761 481.52C182.519 480.539 180.129 479.067 178.593 477.104C177.057 475.099 176.289 472.645 176.289 469.744C176.289 467.525 176.716 465.52 177.569 463.728C178.465 461.936 179.873 460.507 181.793 459.44C183.756 458.373 186.316 457.84 189.473 457.84C191.393 457.84 193.377 458.075 195.425 458.544C197.473 458.971 199.543 459.675 201.633 460.656L199.841 465.456C197.793 464.56 195.937 463.92 194.273 463.536C192.652 463.109 191.095 462.896 189.601 462.896C187.169 462.896 185.271 463.408 183.905 464.432C182.583 465.413 181.921 467.056 181.921 469.36C181.921 471.024 182.369 472.432 183.265 473.584C184.161 474.693 185.761 475.611 188.065 476.336L193.249 477.872C199.735 479.792 202.977 483.931 202.977 490.288C202.977 493.957 201.868 496.944 199.649 499.248C197.431 501.509 193.868 502.64 188.961 502.64C186.956 502.64 184.823 502.405 182.561 501.936C180.343 501.424 178.039 500.635 175.649 499.568L177.377 494.832C179.639 495.856 181.665 496.581 183.457 497.008C185.292 497.435 187.127 497.648 188.961 497.648ZM216.856 462.576H210.968V456.688H216.856V462.576ZM216.536 502H211.288V470.32H216.536V502ZM227.787 494.32V454.64H233.035V494.064C233.035 495.216 233.205 496.091 233.547 496.688C233.931 497.243 234.677 497.52 235.787 497.52H236.811V502.32H235.339C232.523 502.32 230.56 501.573 229.451 500.08C228.341 498.587 227.787 496.667 227.787 494.32ZM269.814 484.208V488.048C269.814 492.571 268.64 496.133 266.294 498.736C263.99 501.339 260.683 502.64 256.374 502.64C252.107 502.64 248.8 501.339 246.454 498.736C244.107 496.133 242.934 492.571 242.934 488.048V484.208C242.934 479.771 244.086 476.251 246.39 473.648C248.736 471.003 252.064 469.68 256.374 469.68C260.683 469.68 263.99 471.003 266.294 473.648C268.64 476.251 269.814 479.771 269.814 484.208ZM264.374 484.208C264.374 481.179 263.691 478.811 262.326 477.104C260.96 475.355 258.976 474.48 256.374 474.48C253.814 474.48 251.83 475.355 250.422 477.104C249.056 478.811 248.374 481.179 248.374 484.208V488.048C248.374 491.205 249.056 493.637 250.422 495.344C251.83 497.051 253.814 497.904 256.374 497.904C258.976 497.904 260.96 497.051 262.326 495.344C263.691 493.637 264.374 491.205 264.374 488.048V484.208Z" fill="white"/>
</g>
<defs>
<filter id="filter0_d_0_1" x="0" y="0" width="448" height="964" filterUnits="userSpaceOnUse" color-interpolation-filters="sRGB">
<feFlood flood-opacity="0" result="BackgroundImageFix"/>
<feColorMatrix in="SourceAlpha" type="matrix" values="0 0 0 0 0 0 0 0 0 0 0 0 0 0 0 0 0 0 127 0" result="hardAlpha"/>
<feOffset dy="4"/>
<feGaussianBlur stdDeviation="2"/>
<feComposite in2="hardAlpha" operator="out"/>
<feColorMatrix type="matrix" values="0 0 0 0 0 0 0 0 0 0 0 0 0 0 0 0 0 0 0.25 0"/>
<feBlend mode="normal" in2="BackgroundImageFix" result="effect1_dropShadow_0_1"/>
<feBlend mode="normal" in="SourceGraphic" in2="effect1_dropShadow_0_1" result="shape"/>
</filter>
<filter id="filter1_d_0_1" x="120" y="387" width="207" height="190" filterUnits="userSpaceOnUse" color-interpolation-filters="sRGB">
<feFlood flood-opacity="0" result="BackgroundImageFix"/>
<feColorMatrix in="SourceAlpha" type="matrix" values="0 0 0 0 0 0 0 0 0 0 0 0 0 0 0 0 0 0 127 0" result="hardAlpha"/>
<feOffset dy="4"/>
<feGaussianBlur stdDeviation="2"/>
<feComposite in2="hardAlpha" operator="out"/>
<feColorMatrix type="matrix" values="0 0 0 0 0 0 0 0 0 0 0 0 0 0 0 0 0 0 0.25 0"/>
<feBlend mode="normal" in2="BackgroundImageFix" result="effect1_dropShadow_0_1"/>
<feBlend mode="normal" in="SourceGraphic" in2="effect1_dropShadow_0_1" result="shape"/>
</filter>
</defs>
</svg>
